<svg height='100px' width='100px' fill="#02BAFF" version="1.1" 
	xmlns="http://www.w3.org/2000/svg" 
	xmlns:xlink="http://www.w3.org/1999/xlink" x="0px" y="0px" viewBox="0 0 95.184 100" enable-background="new 0 0 95.184 100" xml:space="preserve">
	<g id="f-n-e">
		<path fill="#02BAFF" d="M6.225,18.551c-0.017-0.023-0.005-0.054-0.025-0.074c-0.203-0.213-0.522-0.25-0.769-0.074l-4.711,3.373
	c-0.27,0.192-0.264,0.493-0.125,0.793c0.937,2.014,3.472,6.406,6.349,8.879c0.251,0.216,0.524,0.316,0.794,0.124l4.712-3.348
	c0.25-0.178,0.317-0.481,0.174-0.744c-0.012-0.021-0.035-0.055-0.05-0.074c1.461-5.021,6.987-7.444,12.673-5.853
	c4.896,1.37,8.283,7.465,10.937,11.309c0.087,0.125,3.373,5.06,6.597,9.92l5.332-7.192l-5.283-6.845
	C26.515,7.58,31.29,1.506,59.621,8.085C53.774,4.07,47.063-0.023,38.49,0c-5.865,0.017-12.603,1.954-20.535,7.143
	C12.838,10.882,15.928,17.173,6.225,18.551z"></path>
		<path fill="#02BAFF" d="M2.033,4.936c3.753,1.528,7.514,3.041,11.259,4.588c0.335-0.729,0.723-1.45,1.24-2.132
	C9.791,5.412,4.789,3.249,0.099,1.315L0.074,19.593l1.959-1.414V4.936z"></path>
		<path fill="#02BAFF" d="M82.537,6.572l-0.348,2.554c3.65-1.498,7.334-2.982,10.963-4.464l-0.15,86.009l-1.487,0.645l0.348,0.472
	c0.351,0.49,0.532,1.02,0.619,1.562l2.604-1.116l0.099-90.919C91.126,2.989,86.748,4.817,82.537,6.572z"></path>
		<path fill="#02BAFF" d="M63.738,3.795l9.301,3.943l2.033-1.265l0.298-0.149c-3.987-1.649-7.97-3.305-11.955-4.96
	c-2.319,0.964-4.646,1.916-6.969,2.877C57.194,4.79,57.9,5.35,58.555,5.903L63.738,3.795z"></path>
		<path fill="#02BAFF" d="M80.007,12.624l1.834-8.63l-7.29,4.563l-9.003,6.349L11.904,87.051c-2.711,3.722-0.78,7.736,1.562,9.474
	c2.022,1.501,6.286,2.829,9.424-1.29c17.896-23.976,35.812-48.101,53.694-72.145L80.007,12.624z M64.482,20.238l0.794-0.05v0
	L20.46,79.685L64.482,20.238z M68.375,23.263l0.595,0.174L24.379,82.338L68.375,23.263z M14.062,95.806
	c-2.366-1.76-3.157-4.843-1.984-7.242l9.449,7.043C19.566,97.421,16.428,97.564,14.062,95.806z M13.64,85.959l0.124-0.619
	l0.67-0.695l10.068,7.515L13.64,85.959z M15.153,83.95l0.099-0.645l0.694-0.695l10.069,7.515L15.153,83.95z M16.641,81.917
	l0.125-0.646l0.694-0.693l10.069,7.514L16.641,81.917z M28.322,85.166l43.997-59.323l1.141-0.471L28.322,85.166z M74.576,23.933
	l-1.835,0.893l-0.894-2.034L68.5,22.296l-0.596-3.397l-3.051,0.421l0.423-2.306l0.769-1.438l9.349-6.448l1.166,1.19l2.704,1.488
	l-3.546,10.962L74.576,23.933z"></path>
		<path fill="#02BAFF" d="M45.93,7.267c-0.536-0.017-1.096-0.021-1.661-0.024c-1.25-0.008-2.568,0.029-3.968,0.099
	c-0.019,0.002-0.032,0.021-0.05,0.025l7.242,3.05l6.026-2.455c-1.43-0.212-3.008-0.415-4.737-0.546
	c-0.413,0.172-0.825,0.35-1.239,0.521C47.005,7.714,46.468,7.489,45.93,7.267z"></path>
		<polygon fill="#02BAFF" points="64.482,13.566 64.457,8.142 64.407,13.69 "></polygon>
		<polygon fill="#02BAFF" points="64.457,8.061 64.457,8.142 64.458,8.061 "></polygon>
		<path fill="#02BAFF" d="M9.35,93.969l-7.242-3.024L2.059,29.24c-0.819-1.206-1.475-2.455-1.984-3.696L0,92.432l12.078,5.035
	C11.006,96.568,10,95.351,9.35,93.969z"></path>
		<path fill="#02BAFF" d="M32.191,56.992l0.843-1.116L32.86,31.794c-0.132-0.198-0.261-0.37-0.396-0.57L32.191,56.992z"></path>
		<path fill="#02BAFF" d="M63.986,53l0.769,1.091l-0.075-12.227c-0.196,0.265-0.397,0.528-0.595,0.793L63.986,53z"></path>
		<path fill="#02BAFF" d="M58.901,49.626c-2.018,2.716-4.058,5.447-6.076,8.16l29.216,41.938c1.237,1.414,9.147-2.906,8.407-6.177
	L58.901,49.626z"></path>
		<polygon fill="#02BAFF" points="64.977,86.803 64.928,78.916 63.738,77.206 63.638,86.182 "></polygon>
		<polygon fill="#02BAFF" points="63.737,77.205 63.738,77.206 63.738,77.205 "></polygon>
		<path fill="#02BAFF" d="M31.894,86.182l1.339,0.621l-0.024-2.679c-0.442,0.594-0.872,1.192-1.314,1.785V86.182z"></path>
		<path fill="#02BAFF" d="M63.464,89.878l-15.971,6.671l-15.997-6.547l-3.844,1.612c-0.911,1.22-1.815,2.423-2.728,3.646l6.746-2.778
	l15.873,6.548l15.872-6.548l15.377,6.349l-2.505-3.596L63.464,89.878z"></path>
	</g>
</svg>