<svg height='100px' width='100px' fill="#02BAFF" 
    xmlns="http://www.w3.org/2000/svg" 
    xmlns:xlink="http://www.w3.org/1999/xlink" version="1.1" x="0px" y="0px" viewBox="0 0 100 100" enable-background="new 0 0 100 100" xml:space="preserve">
    <g id="klo">
        <path d="M60.85,65.854H36.604c0.408,1.659,0.67,3.32,0.736,4.98h22.803C60.206,69.162,60.456,67.502,60.85,65.854z"></path>
        <path d="M48.744,90.442c7.028,0,12.02-4.103,12.452-10.073H36.292C36.725,86.34,41.716,90.442,48.744,90.442z"></path>
        <path d="M48.744,8.758c-13.375,0-24.256,10.881-24.256,24.257c0,6.111,3.213,12.562,6.319,18.8   c1.806,3.625,3.646,7.319,4.915,11.039h3.075l3.257-6.567l-3.67-7.405c-0.208-0.42-0.208-0.913,0-1.333l3.67-7.402l-3.67-7.407   c-0.208-0.42-0.208-0.912,0-1.332l3.185-6.427c-0.744-0.088-1.323-0.714-1.323-1.482v-5.369c0-0.829,0.672-1.5,1.5-1.5h5.369   c0.828,0,1.5,0.671,1.5,1.5v5.369c0,0.829-0.672,1.5-1.5,1.5h-2.208l-3.505,7.075l3.67,7.407c0.208,0.42,0.208,0.913,0,1.333   l-3.67,7.402l3.67,7.405c0.208,0.42,0.208,0.912,0,1.332l-2.926,5.901h10.968l3.257-6.567l-3.67-7.405   c-0.208-0.42-0.208-0.913,0-1.333l3.67-7.402l-3.67-7.407c-0.208-0.42-0.208-0.912,0-1.332l3.185-6.427   c-0.744-0.088-1.323-0.714-1.323-1.482v-5.369c0-0.829,0.672-1.5,1.5-1.5h5.369c0.828,0,1.5,0.671,1.5,1.5v5.369   c0,0.829-0.672,1.5-1.5,1.5h-2.208l-3.505,7.075l3.67,7.407c0.208,0.42,0.208,0.913,0,1.333l-3.67,7.402l3.67,7.405   c0.208,0.42,0.208,0.912,0,1.332l-2.926,5.901h5.245c1.287-3.852,3.185-7.636,5.049-11.348C69.967,45.112,73,39.073,73,33.015   C73,19.639,62.119,8.758,48.744,8.758z"></path>
        <path d="M29.765,75.603c0,0.974,0.793,1.767,1.769,1.767h34.424c0.975,0,1.768-0.793,1.768-1.767c0-0.976-0.793-1.769-1.768-1.769   H31.533C30.558,73.834,29.765,74.627,29.765,75.603z"></path>
        <rect x="43.246" y="19.629" width="2.369" height="2.369"></rect>
        <rect x="57.563" y="19.629" width="2.369" height="2.369"></rect>
    </g>
</svg>