<svg height='100px' width='100px' fill="#02BAFF" 
    xmlns="http://www.w3.org/2000/svg" 
    xmlns:xlink="http://www.w3.org/1999/xlink" version="1.1" x="0px" y="0px" viewBox="0 0 64 64" style="enable-background:new 0 0 64 64;" xml:space="preserve">
    <g id="project">
        <path d="M46,48c-2.757,0-5-2.243-5-5c0-1.04,0.321-2.04,0.928-2.893l-1.629-1.16C39.449,40.141,39,41.542,39,43   c0,3.859,3.141,7,7,7c1.458,0,2.859-0.449,4.053-1.299l-1.16-1.629C48.04,47.679,47.04,48,46,48z"></path>
        <path d="M54,23v-3c0-2.206-1.794-4-4-4v-4h-3v-2h2V4h-6v6h2v2h-3v11h-2v-5.458c0-1.963-1.405-3.623-3.343-3.946L34,13.153V12   h-0.031C35.194,11.088,36,9.641,36,8V6c0-2.757-2.243-5-5-5s-5,2.243-5,5v2c0,1.641,0.806,3.088,2.031,4H28v1.153l-2.657,0.443   C23.405,13.918,22,15.578,22,17.542V23h-1v-5.458c0-1.963-1.405-3.623-3.343-3.946L15,13.153V12h-0.031   C16.194,11.088,17,9.641,17,8V6c0-2.757-2.243-5-5-5S7,3.243,7,6v2c0,1.641,0.806,3.088,2.031,4H9v1.153l-2.657,0.443   C4.405,13.918,3,15.578,3,17.542V23H1v40h62V23H54z M45,6h2v2h-2V6z M48,14v2h-4v-2H48z M53.729,38.408   c0.439,0.737,0.771,1.536,0.984,2.374l0.155,0.611L57,41.819v2.361l-2.132,0.426l-0.155,0.611   c-0.214,0.838-0.545,1.637-0.984,2.374l-0.322,0.541l1.206,1.811l-1.669,1.669l-1.811-1.206l-0.541,0.322   c-0.737,0.439-1.536,0.771-2.374,0.984l-0.611,0.155L47.181,54h-2.361l-0.426-2.132l-0.611-0.155   c-0.838-0.214-1.637-0.545-2.374-0.984l-0.541-0.322l-1.811,1.206l-1.669-1.669l1.206-1.811l-0.322-0.541   c-0.439-0.737-0.771-1.536-0.984-2.374l-0.155-0.611L35,44.181v-2.361l2.132-0.426l0.155-0.611   c0.214-0.838,0.545-1.637,0.984-2.374l0.322-0.541l-1.206-1.811l1.669-1.669l1.811,1.206l0.541-0.322   c0.19-0.113,0.394-0.198,0.592-0.297v5.359l4,5.334l4-5.334v-0.324c0.636,0.853,1,1.898,1,2.991c0,1.04-0.321,2.04-0.928,2.893   l1.629,1.16C52.551,45.859,53,44.458,53,43c0-2.289-1.141-4.426-3-5.728v-2.298c0.198,0.099,0.402,0.184,0.592,0.297l0.541,0.322   l1.811-1.206l1.669,1.669l-1.206,1.811L53.729,38.408z M44,38h4v1.667l-2,2.666l-2-2.666V38z M48,36h-4V18h4V36z M28,6   c0-1.654,1.346-3,3-3s3,1.346,3,3v2c0,1.654-1.346,3-3,3s-3-1.346-3-3V6z M24,17.542c0-0.982,0.703-1.812,1.671-1.973L30,14.847   v-1.948C30.323,12.965,30.658,13,31,13s0.677-0.035,1-0.101v1.948l4.329,0.721C37.297,15.73,38,16.56,38,17.542V23H24V17.542z M9,6   c0-1.654,1.346-3,3-3s3,1.346,3,3v2c0,1.654-1.346,3-3,3S9,9.654,9,8V6z M5,17.542c0-0.982,0.703-1.812,1.671-1.973L11,14.847   v-1.948C11.323,12.965,11.658,13,12,13s0.677-0.035,1-0.101v1.948l4.329,0.721C18.297,15.73,19,16.56,19,17.542V23H5V17.542z    M61,61H3V25h39v7.769c-0.36,0.141-0.714,0.295-1.057,0.473l-2.143-1.428l-3.987,3.987l1.429,2.143   c-0.288,0.555-0.528,1.134-0.718,1.731L33,40.181v5.639l2.524,0.506c0.189,0.598,0.43,1.177,0.718,1.731l-1.429,2.143l3.987,3.987   l2.143-1.429c0.555,0.288,1.134,0.528,1.731,0.718L43.181,56h5.639l0.506-2.524c0.598-0.189,1.177-0.43,1.731-0.718l2.143,1.429   l3.987-3.987l-1.429-2.143c0.288-0.555,0.528-1.134,0.718-1.731L59,45.819v-5.639l-2.524-0.506   c-0.189-0.598-0.43-1.177-0.718-1.731l1.429-2.143l-3.987-3.987l-2.143,1.428c-0.343-0.178-0.697-0.333-1.057-0.473V18   c1.103,0,2,0.897,2,2v7c0,1.654,1.346,3,3,3h2v-2h-2c-0.552,0-1-0.449-1-1v-2h7V61z"></path>
        <rect x="31" y="28" width="2" height="2"></rect>
        <rect x="27" y="28" width="2" height="2"></rect>
        <rect x="23" y="28" width="2" height="2"></rect>
        <polygon points="25.059,42.118 27.618,37 33,37 33,35 26.382,35 24.941,37.882 21.58,32 5,32 5,34 20.42,34  "></polygon>
        <rect x="5" y="36" width="15" height="2"></rect>
        <rect x="5" y="40" width="15" height="2"></rect>
        <polygon points="28,52 26,52 26,57 24,57 24,49 22,49 22,57 20,57 20,44 18,44 18,57 16,57 16,49 14,49 14,57 12,57 12,52 10,52    10,57 8,57 8,59 30,59 30,57 28,57  "></polygon>
        <rect x="57" y="57" width="2" height="2"></rect>
        <rect x="53" y="57" width="2" height="2"></rect>
        <rect x="49" y="57" width="2" height="2"></rect>
    </g>
</svg>